<svg id="visual" viewBox="0 0 900 600" width="900" height="600" xmlns="http://www.w3.org/2000/svg" xmlns:xlink="http://www.w3.org/1999/xlink" version="1.1"><rect x="0" y="0" width="900" height="600" fill="#141d22"></rect><path d="M0 506L18.8 500.2C37.7 494.3 75.3 482.7 112.8 483C150.3 483.3 187.7 495.7 225.2 502.2C262.7 508.7 300.3 509.3 337.8 512C375.3 514.7 412.7 519.3 450.2 512C487.7 504.7 525.3 485.3 562.8 475C600.3 464.7 637.7 463.3 675.2 473C712.7 482.7 750.3 503.3 787.8 511C825.3 518.7 862.7 513.3 881.3 510.7L900 508L900 601L881.3 601C862.7 601 825.3 601 787.8 601C750.3 601 712.7 601 675.2 601C637.7 601 600.3 601 562.8 601C525.3 601 487.7 601 450.2 601C412.7 601 375.3 601 337.8 601C300.3 601 262.7 601 225.2 601C187.7 601 150.3 601 112.8 601C75.3 601 37.7 601 18.8 601L0 601Z" fill="#0c454c"></path><path d="M0 550L18.8 549.3C37.7 548.7 75.3 547.3 112.8 539.7C150.3 532 187.7 518 225.2 516.8C262.7 515.7 300.3 527.3 337.8 533.3C375.3 539.3 412.7 539.7 450.2 538.5C487.7 537.3 525.3 534.7 562.8 531.2C600.3 527.7 637.7 523.3 675.2 519.2C712.7 515 750.3 511 787.8 508.8C825.3 506.7 862.7 506.3 881.3 506.2L900 506L900 601L881.3 601C862.7 601 825.3 601 787.8 601C750.3 601 712.7 601 675.2 601C637.7 601 600.3 601 562.8 601C525.3 601 487.7 601 450.2 601C412.7 601 375.3 601 337.8 601C300.3 601 262.7 601 225.2 601C187.7 601 150.3 601 112.8 601C75.3 601 37.7 601 18.8 601L0 601Z" fill="#12373f"></path><path d="M0 547L18.8 542.5C37.7 538 75.3 529 112.8 529C150.3 529 187.7 538 225.2 544C262.7 550 300.3 553 337.8 548C375.3 543 412.7 530 450.2 530.3C487.7 530.7 525.3 544.3 562.8 546.3C600.3 548.3 637.7 538.7 675.2 533.7C712.7 528.7 750.3 528.3 787.8 534.5C825.3 540.7 862.7 553.3 881.3 559.7L900 566L900 601L881.3 601C862.7 601 825.3 601 787.8 601C750.3 601 712.7 601 675.2 601C637.7 601 600.3 601 562.8 601C525.3 601 487.7 601 450.2 601C412.7 601 375.3 601 337.8 601C300.3 601 262.7 601 225.2 601C187.7 601 150.3 601 112.8 601C75.3 601 37.7 601 18.8 601L0 601Z" fill="#152931"></path><path d="M0 546L18.8 551C37.7 556 75.3 566 112.8 568.8C150.3 571.7 187.7 567.3 225.2 566C262.7 564.7 300.3 566.3 337.8 564.2C375.3 562 412.7 556 450.2 555.7C487.7 555.3 525.3 560.7 562.8 565.8C600.3 571 637.7 576 675.2 578.3C712.7 580.7 750.3 580.3 787.8 574.7C825.3 569 862.7 558 881.3 552.5L900 547L900 601L881.3 601C862.7 601 825.3 601 787.8 601C750.3 601 712.7 601 675.2 601C637.7 601 600.3 601 562.8 601C525.3 601 487.7 601 450.2 601C412.7 601 375.3 601 337.8 601C300.3 601 262.7 601 225.2 601C187.7 601 150.3 601 112.8 601C75.3 601 37.7 601 18.8 601L0 601Z" fill="#141d22"></path></svg>