<svg id="visual" viewBox="0 0 900 100" width="900" height="100" xmlns="http://www.w3.org/2000/svg" xmlns:xlink="http://www.w3.org/1999/xlink" version="1.1"><path d="M0 5L30 6.8C60 8.7 120 12.3 180 15.3C240 18.3 300 20.7 360 22.5C420 24.3 480 25.7 540 24C600 22.3 660 17.7 720 13.2C780 8.7 840 4.3 870 2.2L900 0L900 0L870 0C840 0 780 0 720 0C660 0 600 0 540 0C480 0 420 0 360 0C300 0 240 0 180 0C120 0 60 0 30 0L0 0Z" fill="#141d22"></path><path d="M0 12L30 15.2C60 18.3 120 24.7 180 28C240 31.3 300 31.7 360 32C420 32.3 480 32.7 540 32C600 31.3 660 29.7 720 27.2C780 24.7 840 21.3 870 19.7L900 18L900 0L870 1.8C840 3.7 780 7.3 720 11.5C660 15.7 600 20.3 540 22C480 23.7 420 22.3 360 20.5C300 18.7 240 16.3 180 13.3C120 10.3 60 6.7 30 4.8L0 3Z" fill="#2c494d"></path><path d="M0 62L30 58.3C60 54.7 120 47.3 180 46.3C240 45.3 300 50.7 360 50.3C420 50 480 44 540 41.3C600 38.7 660 39.3 720 38.3C780 37.3 840 34.7 870 33.3L900 32L900 16L870 17.7C840 19.3 780 22.7 720 25.2C660 27.7 600 29.3 540 30C480 30.7 420 30.3 360 30C300 29.7 240 29.3 180 26C120 22.7 60 16.3 30 13.2L0 10Z" fill="#4c7972"></path><path d="M0 79L30 74.7C60 70.3 120 61.7 180 57.8C240 54 300 55 360 53C420 51 480 46 540 45.2C600 44.3 660 47.7 720 47.8C780 48 840 45 870 43.5L900 42L900 30L870 31.3C840 32.7 780 35.3 720 36.3C660 37.3 600 36.7 540 39.3C480 42 420 48 360 48.3C300 48.7 240 43.3 180 44.3C120 45.3 60 52.7 30 56.3L0 60Z" fill="#5d8d7f"></path><path d="M0 88L30 87C60 86 120 84 180 80.7C240 77.3 300 72.7 360 72.5C420 72.3 480 76.7 540 80.7C600 84.7 660 88.3 720 87.8C780 87.3 840 82.7 870 80.3L900 78L900 40L870 41.5C840 43 780 46 720 45.8C660 45.7 600 42.3 540 43.2C480 44 420 49 360 51C300 53 240 52 180 55.8C120 59.7 60 68.3 30 72.7L0 77Z" fill="#4c7972"></path><path d="M0 97L30 96.3C60 95.7 120 94.3 180 92C240 89.7 300 86.3 360 85.3C420 84.3 480 85.7 540 87.3C600 89 660 91 720 89.8C780 88.7 840 84.3 870 82.2L900 80L900 76L870 78.3C840 80.7 780 85.3 720 85.8C660 86.3 600 82.7 540 78.7C480 74.7 420 70.3 360 70.5C300 70.7 240 75.3 180 78.7C120 82 60 84 30 85L0 86Z" fill="#2c494d"></path><path d="M0 101L30 101C60 101 120 101 180 101C240 101 300 101 360 101C420 101 480 101 540 101C600 101 660 101 720 101C780 101 840 101 870 101L900 101L900 78L870 80.2C840 82.3 780 86.7 720 87.8C660 89 600 87 540 85.3C480 83.7 420 82.3 360 83.3C300 84.3 240 87.7 180 90C120 92.3 60 93.7 30 94.3L0 95Z" fill="#141d22"></path></svg>