<svg id="visual" viewBox="0 0 900 600" width="900" height="600" xmlns="http://www.w3.org/2000/svg" xmlns:xlink="http://www.w3.org/1999/xlink" version="1.1"><rect x="0" y="0" width="900" height="600" fill="#141d22"></rect><defs><linearGradient id="grad1_0" x1="33.3%" y1="100%" x2="100%" y2="0%"><stop offset="20%" stop-color="#0c454c" stop-opacity="1"></stop><stop offset="80%" stop-color="#0c454c" stop-opacity="1"></stop></linearGradient></defs><defs><linearGradient id="grad1_1" x1="33.3%" y1="100%" x2="100%" y2="0%"><stop offset="20%" stop-color="#0c454c" stop-opacity="1"></stop><stop offset="80%" stop-color="#143038" stop-opacity="1"></stop></linearGradient></defs><defs><linearGradient id="grad1_2" x1="33.3%" y1="100%" x2="100%" y2="0%"><stop offset="20%" stop-color="#141d22" stop-opacity="1"></stop><stop offset="80%" stop-color="#143038" stop-opacity="1"></stop></linearGradient></defs><defs><linearGradient id="grad2_0" x1="0%" y1="100%" x2="66.7%" y2="0%"><stop offset="20%" stop-color="#0c454c" stop-opacity="1"></stop><stop offset="80%" stop-color="#0c454c" stop-opacity="1"></stop></linearGradient></defs><defs><linearGradient id="grad2_1" x1="0%" y1="100%" x2="66.7%" y2="0%"><stop offset="20%" stop-color="#143038" stop-opacity="1"></stop><stop offset="80%" stop-color="#0c454c" stop-opacity="1"></stop></linearGradient></defs><defs><linearGradient id="grad2_2" x1="0%" y1="100%" x2="66.7%" y2="0%"><stop offset="20%" stop-color="#143038" stop-opacity="1"></stop><stop offset="80%" stop-color="#141d22" stop-opacity="1"></stop></linearGradient></defs><g transform="translate(900, 600)"><path d="M-405.6 0C-375.9 -36.9 -346.1 -73.9 -324.3 -105.4C-302.5 -136.9 -288.7 -162.9 -279.1 -202.8C-269.5 -242.6 -264.2 -296.3 -238.4 -328.2C-212.6 -360 -166.4 -370.2 -123.3 -379.5C-80.2 -388.8 -40.1 -397.2 0 -405.6L0 0Z" fill="#15262d"></path><path d="M-270.4 0C-250.6 -24.6 -230.7 -49.2 -216.2 -70.2C-201.7 -91.2 -192.5 -108.6 -186.1 -135.2C-179.7 -161.8 -176.1 -197.5 -158.9 -218.8C-141.8 -240 -111 -246.8 -82.2 -253C-53.4 -259.2 -26.7 -264.8 0 -270.4L0 0Z" fill="#113a43"></path><path d="M-135.2 0C-125.3 -12.3 -115.4 -24.6 -108.1 -35.1C-100.8 -45.6 -96.2 -54.3 -93 -67.6C-89.8 -80.9 -88.1 -98.8 -79.5 -109.4C-70.9 -120 -55.5 -123.4 -41.1 -126.5C-26.7 -129.6 -13.4 -132.4 0 -135.2L0 0Z" fill="#0c454c"></path></g><g transform="translate(0, 0)"><path d="M405.6 0C400 41.3 394.4 82.6 384.2 124.8C374 167.1 359.2 210.2 328.2 238.4C297.2 266.7 250 280.1 210.4 289.6C170.9 299.1 138.9 304.7 105.1 323.4C71.3 342 35.6 373.8 0 405.6L0 0Z" fill="#15262d"></path><path d="M270.4 0C266.7 27.5 263 55.1 256.2 83.2C249.3 111.4 239.4 140.1 218.8 158.9C198.1 177.8 166.7 186.8 140.3 193.1C113.9 199.4 92.6 203.1 70 215.6C47.5 228 23.8 249.2 0 270.4L0 0Z" fill="#113a43"></path><path d="M135.2 0C133.3 13.8 131.5 27.5 128.1 41.6C124.7 55.7 119.7 70.1 109.4 79.5C99.1 88.9 83.3 93.4 70.1 96.5C57 99.7 46.3 101.6 35 107.8C23.8 114 11.9 124.6 0 135.2L0 0Z" fill="#0c454c"></path></g></svg>