<svg id="visual" viewBox="0 0 540 960" width="540" height="960" xmlns="http://www.w3.org/2000/svg" xmlns:xlink="http://www.w3.org/1999/xlink" version="1.1"><rect x="0" y="0" width="540" height="960" fill="#141d22"></rect><path d="M0 41L11.3 44.7C22.7 48.3 45.3 55.7 67.8 60.8C90.3 66 112.7 69 135.2 70.5C157.7 72 180.3 72 202.8 69.3C225.3 66.7 247.7 61.3 270.2 57.8C292.7 54.3 315.3 52.7 337.8 53C360.3 53.3 382.7 55.7 405.2 55.5C427.7 55.3 450.3 52.7 472.8 49.8C495.3 47 517.7 44 528.8 42.5L540 41L540 0L528.8 0C517.7 0 495.3 0 472.8 0C450.3 0 427.7 0 405.2 0C382.7 0 360.3 0 337.8 0C315.3 0 292.7 0 270.2 0C247.7 0 225.3 0 202.8 0C180.3 0 157.7 0 135.2 0C112.7 0 90.3 0 67.8 0C45.3 0 22.7 0 11.3 0L0 0Z" fill="#0c454c"></path><path d="M0 31L11.3 34.7C22.7 38.3 45.3 45.7 67.8 46.7C90.3 47.7 112.7 42.3 135.2 40C157.7 37.7 180.3 38.3 202.8 38.2C225.3 38 247.7 37 270.2 39.8C292.7 42.7 315.3 49.3 337.8 53C360.3 56.7 382.7 57.3 405.2 56.2C427.7 55 450.3 52 472.8 48.8C495.3 45.7 517.7 42.3 528.8 40.7L540 39L540 0L528.8 0C517.7 0 495.3 0 472.8 0C450.3 0 427.7 0 405.2 0C382.7 0 360.3 0 337.8 0C315.3 0 292.7 0 270.2 0C247.7 0 225.3 0 202.8 0C180.3 0 157.7 0 135.2 0C112.7 0 90.3 0 67.8 0C45.3 0 22.7 0 11.3 0L0 0Z" fill="#12373f"></path><path d="M0 39L11.3 37.2C22.7 35.3 45.3 31.7 67.8 29.8C90.3 28 112.7 28 135.2 26.7C157.7 25.3 180.3 22.7 202.8 21C225.3 19.3 247.7 18.7 270.2 20.7C292.7 22.7 315.3 27.3 337.8 27.5C360.3 27.7 382.7 23.3 405.2 24.5C427.7 25.7 450.3 32.3 472.8 35C495.3 37.7 517.7 36.3 528.8 35.7L540 35L540 0L528.8 0C517.7 0 495.3 0 472.8 0C450.3 0 427.7 0 405.2 0C382.7 0 360.3 0 337.8 0C315.3 0 292.7 0 270.2 0C247.7 0 225.3 0 202.8 0C180.3 0 157.7 0 135.2 0C112.7 0 90.3 0 67.8 0C45.3 0 22.7 0 11.3 0L0 0Z" fill="#152931"></path><path d="M0 25L11.3 22.7C22.7 20.3 45.3 15.7 67.8 15.2C90.3 14.7 112.7 18.3 135.2 19.3C157.7 20.3 180.3 18.7 202.8 19.5C225.3 20.3 247.7 23.7 270.2 25.2C292.7 26.7 315.3 26.3 337.8 24.3C360.3 22.3 382.7 18.7 405.2 16.3C427.7 14 450.3 13 472.8 14.8C495.3 16.7 517.7 21.3 528.8 23.7L540 26L540 0L528.8 0C517.7 0 495.3 0 472.8 0C450.3 0 427.7 0 405.2 0C382.7 0 360.3 0 337.8 0C315.3 0 292.7 0 270.2 0C247.7 0 225.3 0 202.8 0C180.3 0 157.7 0 135.2 0C112.7 0 90.3 0 67.8 0C45.3 0 22.7 0 11.3 0L0 0Z" fill="#141d22"></path></svg>